<svg width="25" height="25" viewBox="0 0 25 25" fill="none" xmlns="http://www.w3.org/2000/svg">
<path d="M23.5469 17.4688L18.2969 15.2188C18.1562 15.1719 18.0156 15.125 17.8281 15.125C17.5 15.125 17.1719 15.3125 16.9844 15.5469L14.6406 18.4062C10.9844 16.6719 8.07812 13.7656 6.34375 10.1094L9.20312 7.76562C9.4375 7.57812 9.625 7.25 9.625 6.875C9.625 6.73438 9.57812 6.59375 9.53125 6.45312L7.28125 1.20312C7.09375 0.78125 6.67188 0.5 6.20312 0.5C6.15625 0.5 6.0625 0.546875 5.96875 0.546875L1.09375 1.67188C0.578125 1.8125 0.25 2.23438 0.25 2.75C0.25 14.7969 9.95312 24.5 22 24.5C22.5156 24.5 22.9375 24.1719 23.0781 23.6562L24.2031 18.7812C24.2031 18.6875 24.2031 18.5938 24.2031 18.5469C24.2031 18.0781 23.9219 17.6562 23.5469 17.4688Z" fill="white"/>
</svg>
