<svg width="34" height="36" viewBox="0 0 34 36" fill="none" xmlns="http://www.w3.org/2000/svg">
<path d="M17.125 17.6701C22.4445 17.6701 26.75 13.7191 26.75 8.83751C26.75 3.95591 22.4445 0.00488281 17.125 0.00488281C11.8055 0.00488281 7.5 3.95591 7.5 8.83751C7.5 13.7191 11.8055 17.6701 17.125 17.6701ZM23.725 20.1937H23.0117C21.2242 20.9824 19.2391 21.4555 17.125 21.4555C15.0109 21.4555 13.0344 20.9824 11.2383 20.1937H10.525C5.05937 20.1937 0.625 24.2631 0.625 29.2787V31.55C0.625 33.6398 2.47266 35.3354 4.75 35.3354H29.5C31.7773 35.3354 33.625 33.6398 33.625 31.55V29.2787C33.625 24.2631 29.1906 20.1937 23.725 20.1937Z" fill="#252641"/>
</svg>
