<svg width="56" height="39" viewBox="0 0 56 39" fill="none" xmlns="http://www.w3.org/2000/svg">
<path d="M8.875 17.1121C11.9086 17.1121 14.375 14.6916 14.375 11.7144C14.375 8.7372 11.9086 6.31666 8.875 6.31666C5.84141 6.31666 3.375 8.7372 3.375 11.7144C3.375 14.6916 5.84141 17.1121 8.875 17.1121ZM47.375 17.1121C50.4086 17.1121 52.875 14.6916 52.875 11.7144C52.875 8.7372 50.4086 6.31666 47.375 6.31666C44.3414 6.31666 41.875 8.7372 41.875 11.7144C41.875 14.6916 44.3414 17.1121 47.375 17.1121ZM50.125 19.811H44.625C43.1125 19.811 41.7461 20.4098 40.7492 21.3797C44.2125 23.2436 46.6703 26.6087 47.2031 30.6064H52.875C54.3961 30.6064 55.625 29.4003 55.625 27.9075V25.2087C55.625 22.2315 53.1586 19.811 50.125 19.811ZM28.125 19.811C33.4445 19.811 37.75 15.5856 37.75 10.365C37.75 5.14435 33.4445 0.918945 28.125 0.918945C22.8055 0.918945 18.5 5.14435 18.5 10.365C18.5 15.5856 22.8055 19.811 28.125 19.811ZM34.725 22.5098H34.0117C32.2242 23.3532 30.2391 23.8592 28.125 23.8592C26.0109 23.8592 24.0344 23.3532 22.2383 22.5098H21.525C16.0594 22.5098 11.625 26.8617 11.625 32.2257V34.6547C11.625 36.8897 13.4727 38.703 15.75 38.703H40.5C42.7773 38.703 44.625 36.8897 44.625 34.6547V32.2257C44.625 26.8617 40.1906 22.5098 34.725 22.5098ZM15.5008 21.3797C14.5039 20.4098 13.1375 19.811 11.625 19.811H6.125C3.09141 19.811 0.625 22.2315 0.625 25.2087V27.9075C0.625 29.4003 1.85391 30.6064 3.375 30.6064H9.03828C9.57969 26.6087 12.0375 23.2436 15.5008 21.3797Z" fill="#252641"/>
</svg>
