<svg width="166" height="76" viewBox="0 0 166 76" fill="none" xmlns="http://www.w3.org/2000/svg">
<path d="M16.598 12.3401C31.6155 -3.98962 57.3845 -3.98962 72.402 12.3401V12.3401C85.7422 26.8459 85.7422 49.1541 72.402 63.6599V63.6599C57.3845 79.9896 31.6155 79.9896 16.598 63.6599V63.6599C3.25776 49.1541 3.25776 26.8459 16.598 12.3401V12.3401Z" fill="#F25471"/>
<path d="M44.5979 3.00041C69.0557 3.02973 88.441 16.7089 88.9883 33.2177C89.5566 50.8115 69.4135 64.564 45.7766 64.9892C20.4557 65.4437 0.691565 51.486 0.0180262 34.9625C-0.697609 17.1194 19.9927 2.91244 44.5979 3.00041ZM47.1657 62.746C48.2602 62.6434 50.3019 62.5407 52.3015 62.2622C62.5729 60.8253 70.929 57.204 77.3487 51.442C78.7168 50.2251 78.5695 49.0668 76.9909 47.9672C72.1919 44.6097 67.3929 41.2522 62.594 37.8948C61.6047 37.191 60.868 37.191 59.8788 37.8948C55.1219 41.1936 50.344 44.4924 45.5871 47.7766C44.7662 48.3484 44.0927 48.3337 43.2929 47.7766C42.1142 46.9556 40.9355 46.1199 39.7568 45.2988C36.1786 42.7917 32.5794 40.2699 29.0012 37.7628C28.2225 37.2203 27.4016 37.2057 26.6649 37.7188C21.6975 41.1496 16.7302 44.5951 11.7839 48.0405C10.4368 48.9789 10.3526 50.1811 11.4892 51.2514C14.5623 54.0811 18.2246 56.4709 22.5395 58.3622C29.759 61.5144 37.673 62.9513 47.1657 62.746ZM42.8298 44.3312C42.8719 44.0966 42.893 44.0086 42.893 43.9206C42.914 37.279 42.9351 30.6227 42.9561 23.981C42.9561 22.9987 42.1773 22.4855 40.7671 22.4855C30.8114 22.4709 20.8556 22.4562 10.8999 22.4415C8.03735 22.4415 5.80625 23.5998 5.02747 25.5205C4.6907 26.3268 4.39603 27.1479 4.1224 27.9689C3.46991 29.9336 3.17524 31.9422 3.19629 33.9508C3.19629 35.373 3.40677 36.7951 3.68039 38.2027C4.10135 40.5045 5.02747 42.7331 6.29035 44.8736C6.75341 45.6654 7.91106 46.0905 9.1108 46.0466C10.1842 46.0026 10.8157 45.5187 11.5103 45.0496C16.5829 41.5455 21.6344 38.0267 26.707 34.5226C27.3595 34.0681 28.1804 34.0681 28.8328 34.5226C31.6954 36.5166 34.5579 38.5105 37.3994 40.5045C39.1675 41.7361 40.9355 42.997 42.8298 44.3312ZM46.1133 44.2579C46.4922 44.0086 46.7658 43.8327 47.0394 43.6421C51.3964 40.6218 55.7533 37.6015 60.1103 34.5813C60.868 34.0535 61.6468 34.0535 62.3835 34.5813C67.5824 38.2173 72.7812 41.8534 77.9801 45.4894C79.5587 46.589 81.9161 46.2958 82.758 44.859C84.926 41.1936 85.9363 37.3669 85.81 33.3937C85.7258 30.696 85.1365 28.0716 83.9788 25.4911C83.1579 23.6585 80.9689 22.5442 78.2116 22.5442C68.3611 22.5295 58.5106 22.5149 48.6601 22.5002C48.4076 22.5002 48.1339 22.5002 47.8814 22.5149C47.0815 22.5588 46.429 22.9254 46.2396 23.4532C46.1554 23.6731 46.1344 23.9077 46.1344 24.1276C46.1133 30.6813 46.0923 37.2497 46.0712 43.8033C46.0502 43.9206 46.0923 44.0379 46.1133 44.2579ZM39.1464 5.50752C38.9149 5.50752 38.8307 5.50752 38.7465 5.50752C36.1155 5.75677 33.5476 6.18195 31.0429 6.79773C22.35 8.93831 15.4042 12.677 10.2053 17.9845C9.72119 18.4683 9.61595 18.9814 10.0369 19.5239C10.4368 20.0371 11.1104 20.2423 11.9312 20.2423C20.4768 20.257 29.0012 20.2716 37.5468 20.2863C37.7572 20.2863 37.9467 20.2716 38.3255 20.257C34.4527 18.395 32.411 15.9465 32.5584 12.7356C32.7267 9.49545 35.0631 7.14961 39.1464 5.50752ZM50.8281 20.2716C51.1228 20.2863 51.2701 20.2863 51.4174 20.2863C60.0051 20.301 68.5927 20.3156 77.1803 20.3303C77.2645 20.3303 77.3487 20.3303 77.4329 20.3303C79.0115 20.2423 79.8955 19.0694 78.9694 18.1751C77.917 17.1341 76.8646 16.0931 75.6648 15.1401C69.9187 10.5511 62.7834 7.50149 54.28 6.03534C52.9539 5.80075 51.6069 5.65414 50.2598 5.46354C58.4475 8.57177 58.8264 16.8409 50.8281 20.2716ZM44.5137 19.2014C49.4179 19.216 53.4591 16.4743 53.4591 13.0875C53.4591 9.77402 49.8178 6.87104 44.5979 6.85638C39.6095 6.84172 35.7787 9.55409 35.7156 13.0142C35.6314 16.3717 39.6726 19.172 44.5137 19.2014Z" fill="white"/>
<path d="M103.608 47.6708C101.496 47.6708 99.5547 47.1801 97.784 46.1988C96.0347 45.2174 94.6373 43.8521 93.592 42.1028C92.568 40.3321 92.056 38.3481 92.056 36.1508C92.056 33.9534 92.568 31.9801 93.592 30.2308C94.6373 28.4814 96.0347 27.1161 97.784 26.1348C99.5547 25.1534 101.496 24.6628 103.608 24.6628C105.72 24.6628 107.651 25.1534 109.4 26.1348C111.171 27.1161 112.557 28.4814 113.56 30.2308C114.584 31.9801 115.096 33.9534 115.096 36.1508C115.096 38.3481 114.584 40.3321 113.56 42.1028C112.536 43.8521 111.149 45.2174 109.4 46.1988C107.651 47.1801 105.72 47.6708 103.608 47.6708ZM103.608 42.6788C105.4 42.6788 106.829 42.0814 107.896 40.8868C108.984 39.6921 109.528 38.1134 109.528 36.1508C109.528 34.1668 108.984 32.5881 107.896 31.4148C106.829 30.2201 105.4 29.6228 103.608 29.6228C101.795 29.6228 100.344 30.2094 99.256 31.3828C98.1893 32.5561 97.656 34.1454 97.656 36.1508C97.656 38.1348 98.1893 39.7241 99.256 40.9188C100.344 42.0921 101.795 42.6788 103.608 42.6788ZM135.58 24.9828V29.3668H129.628V47.4468H124.156V29.3668H118.204V24.9828H135.58ZM165.047 24.9828V47.4468H159.575V33.9748L154.551 47.4468H150.135L145.079 33.9428V47.4468H139.607V24.9828H146.071L152.375 40.5348L158.615 24.9828H165.047Z" fill="#393FCF"/>
</svg>
